<?xml version="1.0" standalone="no"?>
<!DOCTYPE svg PUBLIC "-//W3C//DTD SVG 20010904//EN"
 "http://www.w3.org/TR/2001/REC-SVG-20010904/DTD/svg10.dtd">
<svg version="1.0" xmlns="http://www.w3.org/2000/svg"
 width="320.000000pt" height="320.000000pt" viewBox="0 0 320.000000 320.000000"
 preserveAspectRatio="xMidYMid meet">
<metadata>
Created by potrace 1.14, written by Peter Selinger 2001-2017
</metadata>
<g transform="translate(0.000000,320.000000) scale(0.100000,-0.100000)"
fill="#000000" stroke="none">
<path d="M2100 3150 l0 -50 50 0 50 0 0 50 0 50 -50 0 -50 0 0 -50z"/>
<path d="M1000 3050 l0 -50 50 0 50 0 0 50 0 50 -50 0 -50 0 0 -50z"/>
<path d="M2300 2950 l0 -50 50 0 50 0 0 50 0 50 -50 0 -50 0 0 -50z"/>
<path d="M1100 2850 l0 -50 50 0 50 0 0 50 0 50 -50 0 -50 0 0 -50z"/>
<path d="M1300 2850 l0 -50 50 0 50 0 0 50 0 50 -50 0 -50 0 0 -50z"/>
<path d="M1700 2750 l0 -50 50 0 50 0 0 50 0 50 -50 0 -50 0 0 -50z"/>
<path d="M1900 2750 l0 -50 50 0 50 0 0 50 0 50 -50 0 -50 0 0 -50z"/>
<path d="M1500 2650 l0 -50 50 0 50 0 0 50 0 50 -50 0 -50 0 0 -50z"/>
<path d="M2400 2500 l0 -200 50 0 50 0 0 200 0 200 -50 0 -50 0 0 -200z"/>
<path d="M900 2400 l0 -100 150 0 150 0 0 50 0 50 -100 0 -100 0 0 50 0 50
-50 0 -50 0 0 -100z"/>
<path d="M1500 2350 l0 -50 100 0 100 0 0 50 0 50 -100 0 -100 0 0 -50z"/>
<path d="M2200 2350 l0 -50 50 0 50 0 0 50 0 50 -50 0 -50 0 0 -50z"/>
<path d="M1200 2150 l0 -50 50 0 50 0 0 -50 0 -50 -50 0 -50 0 0 -100 0 -100
50 0 50 0 0 -50 0 -50 300 0 300 0 0 50 0 50 150 0 150 0 0 50 0 50 -100 0
-100 0 0 50 0 50 -50 0 -50 0 0 50 0 50 -300 0 -300 0 0 50 0 50 -50 0 -50 0
0 -50z m700 -250 l0 -100 -300 0 -300 0 0 100 0 100 300 0 300 0 0 -100z"/>
<path d="M2100 2150 l0 -50 50 0 50 0 0 50 0 50 -50 0 -50 0 0 -50z"/>
<path d="M200 1950 l0 -50 -50 0 -50 0 0 -250 0 -250 50 0 50 0 0 -100 0 -100
-50 0 -50 0 0 -100 0 -100 50 0 50 0 0 -50 0 -50 50 0 50 0 0 -200 0 -200 100
0 100 0 0 -50 0 -50 100 0 100 0 0 -50 0 -50 100 0 100 0 0 -50 0 -50 -100 0
-100 0 0 -50 0 -50 350 0 350 0 0 100 0 100 150 0 150 0 0 -50 0 -50 -100 0
-100 0 0 -50 0 -50 250 0 250 0 0 -50 0 -50 50 0 50 0 0 50 0 50 100 0 100 0
0 -50 0 -50 50 0 50 0 0 50 0 50 -50 0 -50 0 0 50 0 50 50 0 50 0 0 50 0 50
100 0 100 0 0 50 0 50 100 0 100 0 0 50 0 50 50 0 50 0 0 200 0 200 50 0 50 0
0 50 0 50 50 0 50 0 0 100 0 100 -50 0 -50 0 0 100 0 100 50 0 50 0 0 250 0
250 -50 0 -50 0 0 50 0 50 -50 0 -50 0 0 -50 0 -50 -50 0 -50 0 0 -50 0 -50
-50 0 -50 0 0 -50 0 -50 -100 0 -100 0 0 -100 0 -100 -50 0 -50 0 0 -50 0 -50
-50 0 -50 0 0 50 0 50 -50 0 -50 0 0 50 0 50 -150 0 -150 0 0 -50 0 -50 -50 0
-50 0 0 -50 0 -50 -200 0 -200 0 0 50 0 50 -50 0 -50 0 0 50 0 50 -150 0 -150
0 0 -50 0 -50 -50 0 -50 0 0 -50 0 -50 -50 0 -50 0 0 50 0 50 -50 0 -50 0 0
100 0 100 -100 0 -100 0 0 50 0 50 -50 0 -50 0 0 50 0 50 -50 0 -50 0 0 50 0
50 -50 0 -50 0 0 -50z m100 -200 l0 -50 100 0 100 0 0 -50 0 -50 50 0 50 0 0
-50 0 -50 50 0 50 0 0 -100 0 -100 50 0 50 0 0 -150 0 -150 -100 0 -100 0 0
-50 0 -50 -150 0 -150 0 0 50 0 50 -50 0 -50 0 0 50 0 50 250 0 250 0 0 50 0
50 -100 0 -100 0 0 50 0 50 -100 0 -100 0 0 50 0 50 -50 0 -50 0 0 200 0 200
50 0 50 0 0 -50z m2700 -150 l0 -200 -50 0 -50 0 0 -50 0 -50 -100 0 -100 0 0
-50 0 -50 -100 0 -100 0 0 -50 0 -50 250 0 250 0 0 -50 0 -50 -50 0 -50 0 0
-50 0 -50 -150 0 -150 0 0 50 0 50 -100 0 -100 0 0 150 0 150 50 0 50 0 0 100
0 100 50 0 50 0 0 50 0 50 50 0 50 0 0 50 0 50 100 0 100 0 0 50 0 50 50 0 50
0 0 -200z m-1700 -150 l0 -50 50 0 50 0 0 -50 0 -50 200 0 200 0 0 50 0 50 50
0 50 0 0 50 0 50 100 0 100 0 0 -50 0 -50 50 0 50 0 0 -50 0 -50 50 0 50 0 0
-250 0 -250 -50 0 -50 0 0 -100 0 -100 -150 0 -150 0 0 -50 0 -50 -50 0 -50 0
0 50 0 50 -50 0 -50 0 0 100 0 100 -50 0 -50 0 0 -50 0 -50 -50 0 -50 0 0 -50
0 -50 -50 0 -50 0 0 -50 0 -50 -50 0 -50 0 0 50 0 50 -150 0 -150 0 0 100 0
100 -50 0 -50 0 0 250 0 250 50 0 50 0 0 50 0 50 50 0 50 0 0 50 0 50 100 0
100 0 0 -50z m-500 -700 l0 -50 -50 0 -50 0 0 -50 0 -50 -150 0 -150 0 0 50 0
50 50 0 50 0 0 50 0 50 150 0 150 0 0 -50z m1900 0 l0 -50 50 0 50 0 0 -50 0
-50 -150 0 -150 0 0 50 0 50 -50 0 -50 0 0 50 0 50 150 0 150 0 0 -50z"/>
<path d="M1100 1250 l0 -50 -50 0 -50 0 0 -50 0 -50 50 0 50 0 0 -50 0 -50 50
0 50 0 0 50 0 50 50 0 50 0 0 50 0 50 -50 0 -50 0 0 50 0 50 -50 0 -50 0 0
-50z m100 -100 l0 -50 -50 0 -50 0 0 50 0 50 50 0 50 0 0 -50z"/>
<path d="M2000 1250 l0 -50 -50 0 -50 0 0 -50 0 -50 50 0 50 0 0 -50 0 -50 50
0 50 0 0 50 0 50 50 0 50 0 0 50 0 50 -50 0 -50 0 0 50 0 50 -50 0 -50 0 0
-50z m100 -100 l0 -50 -50 0 -50 0 0 50 0 50 50 0 50 0 0 -50z"/>
<path d="M1500 1150 l0 -50 100 0 100 0 0 50 0 50 -100 0 -100 0 0 -50z"/>
<path d="M1400 950 l0 -50 -50 0 -50 0 0 -150 0 -150 50 0 50 0 0 100 0 100
50 0 50 0 0 50 0 50 100 0 100 0 0 -50 0 -50 50 0 50 0 0 -100 0 -100 50 0 50
0 0 150 0 150 -50 0 -50 0 0 50 0 50 -200 0 -200 0 0 -50z"/>
<path d="M900 1950 l0 -50 50 0 50 0 0 50 0 50 -50 0 -50 0 0 -50z"/>
<path d="M1000 1750 l0 -50 50 0 50 0 0 50 0 50 -50 0 -50 0 0 -50z"/>
</g>
</svg>
